<svg width="25" height="24" viewBox="0 0 25 24" fill="none" xmlns="http://www.w3.org/2000/svg">
    <path
        d="M24.5 12.2659C24.5 11.2821 24.4183 10.5641 24.2415 9.81961H12.7449V14.2602H19.4931C19.3571 15.3637 18.6225 17.0256 16.9898 18.1424L16.9669 18.291L20.6019 21.0428L20.8537 21.0674C23.1666 18.98 24.5 15.9088 24.5 12.2659Z"
        fill="#4285F4" />
    <path
        d="M12.7449 23.9657C16.051 23.9657 18.8265 22.9021 20.8537 21.0674L16.9898 18.1424C15.9558 18.847 14.568 19.3389 12.7449 19.3389C9.50682 19.3389 6.75854 17.2516 5.77886 14.3666L5.63526 14.3785L1.85552 17.237L1.80609 17.3713C3.81968 21.28 7.95574 23.9657 12.7449 23.9657Z"
        fill="#34A853" />
    <path
        d="M5.77886 14.3666C5.52036 13.6221 5.37076 12.8243 5.37076 12C5.37076 11.1757 5.52036 10.378 5.76526 9.63346L5.75841 9.47489L1.93131 6.57049L1.80609 6.62869C0.976196 8.25073 0.5 10.0722 0.5 12C0.5 13.9278 0.976196 15.7492 1.80609 17.3713L5.77886 14.3666Z"
        fill="#FBBC05" />
    <path
        d="M12.7449 4.66101C15.0442 4.66101 16.5952 5.63156 17.4796 6.44263L20.9353 3.14539C18.8129 1.21758 16.051 0.0343018 12.7449 0.0343018C7.95574 0.0343018 3.81968 2.71992 1.80609 6.62869L5.76526 9.63346C6.75855 6.74839 9.50682 4.66101 12.7449 4.66101Z"
        fill="#EB4335" />
</svg>